# xmcd
#
# Track frame offsets:
#	150
#	15124
#	16079
#	26642
#	40554
#	54063
#	68210
#	78365
#	88101
#	99061
#	111215
#	122870
#	134271
#	142686
#	152556
#	167834
#	185934
#	187052
#	203616
#
# Disc length: 2933 seconds
#
# Revision: 1
# Processed by: cddbd v1.5.1PL0 Copyright (c) Steve Scherf et al.
# Submitted via: EasyCDDAExtractor 7.1.0.1
#
DISCID=e50b7313
DTITLE=Heinrich (Doc Wolf) - The Lost Recordings - A Tribute to John R. Cash
DYEAR=2004
DGENRE=Country
TTITLE0=Now, That You're Gone
TTITLE1=Wait
TTITLE2=Ring of Fire
TTITLE3=Gimme Five, Johnny Cash
TTITLE4=Ruby, Don't Take Your Love To Town
TTITLE5=Give My Love To Rose
TTITLE6=Deliah's Gone
TTITLE7=Solitary Man
TTITLE8=Heart of Gold
TTITLE9=And I Love Her
TTITLE10=As Tears Go By
TTITLE11=Death of a Clown
TTITLE12=Norwegian Wood
TTITLE13=I Won't Back Down
TTITLE14=After Midnight
TTITLE15=Hurt
TTITLE16=Wait 2
TTITLE17=Gimme Five, Johnny Cash (Radioversion)
TTITLE18=Gimme Five, Johnny Cash (Deutsche Version)
EXTD=
EXTT0=
EXTT1=
EXTT2=
EXTT3=
EXTT4=
EXTT5=
EXTT6=
EXTT7=
EXTT8=
EXTT9=
EXTT10=
EXTT11=
EXTT12=
EXTT13=
EXTT14=
EXTT15=
EXTT16=
EXTT17=
EXTT18=
PLAYORDER=
